# xmcd
#
# Track frame offsets:
#	150
#	20033
#	41631
#	61564
#	78901
#	94146
#	111847
#	130434
#	146823
#	162578
#	180418
#	199094
#
# Disc length: 2912 seconds
#
# Revision: 1
# Processed by: cddbd v1.5.2PL0 Copyright (c) Steve Scherf et al.
# Submitted via: audiograbber 1.83.01
#
DISCID=a40b5e0c
DTITLE=Reinhard Fendrich - Alles was du willst [CD3)
DYEAR=1900
DGENRE=Austropop
TTITLE0=Der erste Stein
TTITLE1=Der Himmel würfelt leider nicht
TTITLE2=Über meinem Horizont
TTITLE3=Das Paradies
TTITLE4=Die Fledermaus
TTITLE5=Papa
TTITLE6=Der Wind
TTITLE7=Wie beim ersten Mal
TTITLE8=Voller Mond
TTITLE9=Tutti Frutti Mutti
TTITLE10=Malibu
TTITLE11=Blond (Live)
EXTD=
EXTT0=
EXTT1=
EXTT2=
EXTT3=
EXTT4=
EXTT5=
EXTT6=
EXTT7=
EXTT8=
EXTT9=
EXTT10=
EXTT11=
PLAYORDER=
